<?xml version="1.0" standalone="no"?>
<!DOCTYPE svg PUBLIC "-//W3C//DTD SVG 20010904//EN"
 "http://www.w3.org/TR/2001/REC-SVG-20010904/DTD/svg10.dtd">
<svg version="1.0" xmlns="http://www.w3.org/2000/svg"
 width="1016.000000pt" height="1016.000000pt" viewBox="0 0 1016.000000 1016.000000"
 preserveAspectRatio="xMidYMid meet">
<metadata>
Created by potrace 1.11, written by Peter Selinger 2001-2013
</metadata>
<g transform="translate(0.000000,1016.000000) scale(0.100000,-0.100000)"
fill="#000000" stroke="none">
<path d="M0 5080 l0 -5080 5080 0 5080 0 0 5080 0 5080 -5080 0 -5080 0 0
-5080z m5188 590 l3 -85 51 -13 c141 -33 247 -167 283 -356 19 -98 19 -154 0
-252 -31 -162 -117 -288 -233 -342 -48 -22 -71 -27 -142 -27 -101 0 -170 27
-243 94 -180 166 -196 574 -30 771 28 34 100 90 115 90 4 0 8 -16 8 -36 0 -29
-8 -44 -43 -79 -191 -191 -151 -633 67 -740 72 -35 170 -37 239 -5 122 58 197
209 197 400 0 245 -124 420 -297 420 l-53 0 0 86 0 87 -52 -6 c-29 -4 -85 -22
-124 -42 -124 -61 -216 -183 -260 -345 -25 -91 -25 -310 0 -400 37 -136 115
-255 210 -319 135 -92 335 -103 487 -25 117 59 217 201 255 359 21 93 21 277
0 370 -40 168 -139 302 -268 364 -65 30 -68 34 -68 67 0 21 5 34 13 34 7 0 46
-16 86 -35 141 -68 251 -209 303 -390 33 -115 33 -335 0 -450 -35 -122 -86
-210 -167 -290 -115 -115 -243 -162 -410 -152 -241 15 -418 159 -502 412 -25
74 -27 93 -28 250 0 187 14 255 75 375 95 184 288 304 475 297 l50 -2 3 -85z
m3859 66 c67 -18 163 -62 163 -75 0 -8 -52 -158 -74 -212 -6 -14 -19 -11 -94
20 -82 34 -93 36 -203 36 -111 0 -117 -1 -151 -27 -43 -33 -63 -84 -54 -140
14 -89 48 -124 198 -210 166 -94 223 -163 235 -283 8 -75 -11 -135 -56 -179
-92 -90 -292 -98 -489 -19 -35 14 -67 21 -72 17 -4 -5 -13 -26 -20 -48 -15
-47 -15 -46 94 -81 207 -67 414 -53 542 36 87 60 126 174 106 306 -22 140 -98
241 -230 307 -57 28 -62 33 -57 56 12 46 22 47 92 10 83 -44 181 -133 216
-198 36 -66 57 -153 57 -236 0 -186 -94 -312 -274 -369 -60 -19 -92 -22 -211
-21 -121 1 -152 5 -228 28 -48 14 -116 39 -152 55 l-64 29 41 109 c22 59 44
112 48 116 4 4 44 -8 89 -28 115 -49 193 -67 286 -67 91 0 154 20 185 60 15
19 20 40 20 89 0 113 -40 163 -203 253 -118 65 -159 99 -193 156 -31 53 -43
160 -25 216 13 39 61 92 104 114 76 40 237 37 361 -6 l54 -18 17 44 c9 24 14
48 10 53 -3 6 -36 20 -73 31 -89 28 -292 31 -367 6 -156 -54 -233 -168 -223
-331 8 -124 68 -223 178 -294 54 -35 55 -37 46 -69 -5 -17 -12 -32 -16 -32
-12 0 -123 76 -152 104 -129 124 -170 336 -96 494 47 101 172 188 300 212 70
12 269 4 335 -14z m-7387 -121 l0 -125 -270 0 -270 0 0 -75 0 -75 -35 0 -35 0
0 115 0 115 270 0 270 0 0 50 0 50 -325 0 -325 0 0 -580 0 -580 330 0 330 0 0
50 0 50 -275 0 -275 0 2 318 3 317 293 3 292 2 0 -125 0 -125 -205 0 -205 0 0
35 0 35 170 0 170 0 0 50 0 50 -225 0 -225 0 2 -242 3 -243 273 -3 272 -2 0
-120 0 -120 -400 0 -400 0 0 650 0 650 395 0 395 0 0 -125z m865 110 c217 -46
365 -193 422 -420 24 -99 24 -335 -1 -424 -43 -156 -154 -305 -276 -370 -111
-60 -184 -71 -452 -71 l-238 0 0 566 0 566 253 -4 c298 -5 334 -14 422 -102
91 -91 130 -206 129 -381 0 -168 -44 -286 -138 -373 -88 -81 -158 -102 -348
-102 l-138 0 0 395 0 395 35 0 35 0 2 -357 3 -358 115 1 c103 1 121 3 172 28
138 66 211 242 187 452 -16 146 -68 238 -160 289 l-54 30 -222 3 -223 3 0
-490 0 -491 193 0 c279 0 371 27 495 144 59 55 120 169 143 266 19 77 16 278
-5 364 -21 88 -78 195 -131 251 -55 56 -169 110 -262 124 -39 6 -169 11 -287
11 l-216 0 0 35 0 35 238 0 c170 0 257 -4 307 -15z m1166 -600 l363 -615 83 0
83 0 0 580 0 580 -55 0 -55 0 -2 -520 -3 -520 -255 433 c-140 237 -287 487
-327 555 l-72 122 43 0 43 0 237 -404 c131 -223 244 -413 252 -423 11 -15 13
44 14 405 l0 422 125 0 125 0 0 -650 0 -651 -142 3 -141 3 -332 562 c-182 309
-334 566 -338 569 -4 4 -7 -234 -7 -529 l0 -537 55 0 55 0 0 343 0 342 35 -58
35 -58 0 -320 0 -319 -125 0 -125 0 0 650 0 650 34 0 34 0 363 -615z m2630 56
c108 -305 200 -561 205 -568 6 -9 70 157 194 503 102 284 186 525 188 535 3
17 -3 19 -51 19 l-54 0 -134 -379 c-74 -208 -137 -377 -141 -375 -3 2 -13 24
-21 48 l-15 45 114 323 c63 178 122 342 131 366 l16 42 134 0 c74 0 133 -4
131 -9 -1 -5 -106 -297 -233 -650 -221 -616 -231 -641 -255 -641 -24 0 -33 22
-229 578 -112 317 -211 594 -219 615 -14 36 -15 37 -68 37 -30 0 -54 -3 -54
-7 0 -5 97 -277 215 -606 118 -329 215 -603 215 -608 0 -6 -16 -9 -36 -7 l-37
3 -213 595 c-118 327 -223 619 -234 648 l-20 53 137 -3 137 -3 197 -554z
m1660 -76 c126 -346 232 -638 235 -647 5 -17 -6 -18 -128 -18 l-133 0 -56 158
-57 157 -313 3 -314 2 -43 -117 c-23 -65 -42 -122 -42 -126 0 -4 24 -7 52 -5
l53 3 26 70 c27 69 28 70 67 73 l40 3 -40 -110 -41 -111 -132 0 -133 0 33 93
c18 50 50 139 72 197 l38 105 362 3 361 2 16 -42 c9 -24 36 -97 60 -163 l44
-120 56 -3 56 -3 -39 108 c-21 59 -112 308 -201 553 -89 245 -167 458 -172
473 -10 28 -11 28 -87 25 l-76 -3 -118 -324 c-65 -178 -116 -325 -114 -327 2
-3 101 -3 219 -2 l216 3 -61 168 c-33 92 -64 164 -68 160 -4 -4 -26 -57 -47
-118 l-39 -110 -41 -3 -40 -3 79 218 c44 120 82 225 85 233 5 14 233 -588 234
-617 0 -10 -70 -13 -318 -13 -175 0 -321 2 -324 5 -3 3 61 185 141 405 l146
401 128 -3 129 -3 229 -630z"/>
</g>
</svg>
